<svg width="102" height="39" viewBox="0 0 102 39" fill="none" xmlns="http://www.w3.org/2000/svg">
<rect width="102" height="39" fill="#386DF4"/>
<path d="M65.968 8.6V21.816C65.968 24.9307 65.1253 27.3093 63.44 28.952C61.7547 30.5733 59.3653 31.384 56.272 31.384C54.736 31.384 53.36 31.16 52.144 30.712C50.9493 30.264 49.968 29.6347 49.2 28.824C48.4107 29.6347 47.4187 30.264 46.224 30.712C45.0293 31.16 43.6747 31.384 42.16 31.384C39.0667 31.384 36.6773 30.5733 34.992 28.952C33.3067 27.3093 32.464 24.9307 32.464 21.816V8.6H37.648V21.656C37.648 23.4693 38.0213 24.8133 38.768 25.688C39.5147 26.5413 40.624 26.968 42.096 26.968C45.104 26.968 46.608 25.1973 46.608 21.656V8.6H51.792V21.656C51.792 25.1973 53.3067 26.968 56.336 26.968C59.28 26.968 60.752 25.1973 60.752 21.656V8.6H65.968ZM91.1255 8.6V31H86.1015V28.28C84.5655 30.3493 82.3042 31.384 79.3175 31.384C76.6722 31.384 74.6028 30.552 73.1095 28.888C71.6375 27.2027 70.9015 24.8133 70.9015 21.72V8.6H76.0855V21.56C76.0855 23.352 76.5015 24.7067 77.3335 25.624C78.1868 26.52 79.3388 26.968 80.7895 26.968C82.3468 26.968 83.5948 26.488 84.5335 25.528C85.4722 24.5467 85.9415 23.1067 85.9415 21.208V8.6H91.1255Z" fill="white"/>
<g clip-path="url(#clip0_140_103)">
<path d="M2 19.5L9.04375 21.5125H9.1875V21.3688L19.3938 13.75L17.8125 15.475L8.9 24.9625L9.1875 29.5625L13.3562 24.9625L16.375 31L25 8L2 19.5Z" fill="white"/>
</g>
<defs>
<clipPath id="clip0_140_103">
<rect width="23" height="23" fill="white" transform="translate(2 8)"/>
</clipPath>
</defs>
</svg>
